<?xml version="1.0" encoding="UTF-8" standalone="no"?>
<!-- Created with Inkscape (http://www.inkscape.org/) -->

<svg
   width="48"
   height="48"
   viewBox="0 0 48.000001 48.000001"
   id="svg4230"
   version="1.1"
   inkscape:version="1.3.2 (091e20ef0f, 2023-11-25)"
   sodipodi:docname="fdroid.svg"
   xmlns:inkscape="http://www.inkscape.org/namespaces/inkscape"
   xmlns:sodipodi="http://sodipodi.sourceforge.net/DTD/sodipodi-0.dtd"
   xmlns="http://www.w3.org/2000/svg"
   xmlns:svg="http://www.w3.org/2000/svg"
   xmlns:rdf="http://www.w3.org/1999/02/22-rdf-syntax-ns#"
   xmlns:cc="http://creativecommons.org/ns#"
   xmlns:dc="http://purl.org/dc/elements/1.1/">
  <defs
     id="defs4232" />
  <sodipodi:namedview
     id="base"
     pagecolor="#c75231"
     bordercolor="#666666"
     borderopacity="1.0"
     inkscape:pageopacity="0.0"
     inkscape:pageshadow="2"
     inkscape:zoom="11.313708"
     inkscape:cx="16.440233"
     inkscape:cy="28.195884"
     inkscape:document-units="px"
     inkscape:current-layer="g5012"
     showgrid="true"
     units="px"
     inkscape:window-width="1920"
     inkscape:window-height="1052"
     inkscape:window-x="0"
     inkscape:window-y="0"
     inkscape:window-maximized="1"
     gridtolerance="10000"
     inkscape:showpageshadow="2"
     inkscape:pagecheckerboard="0"
     inkscape:deskcolor="#d1d1d1" />
  <metadata
     id="metadata4235">
    <rdf:RDF>
      <cc:Work
         rdf:about="">
        <dc:format>image/svg+xml</dc:format>
        <dc:type
           rdf:resource="http://purl.org/dc/dcmitype/StillImage" />
        <cc:license
           rdf:resource="http://creativecommons.org/licenses/by-sa/4.0/" />
      </cc:Work>
      <cc:License
         rdf:about="http://creativecommons.org/licenses/by-sa/3.0/">
        <cc:permits
           rdf:resource="http://creativecommons.org/ns#Reproduction" />
        <cc:permits
           rdf:resource="http://creativecommons.org/ns#Distribution" />
        <cc:requires
           rdf:resource="http://creativecommons.org/ns#Notice" />
        <cc:requires
           rdf:resource="http://creativecommons.org/ns#Attribution" />
        <cc:permits
           rdf:resource="http://creativecommons.org/ns#DerivativeWorks" />
        <cc:requires
           rdf:resource="http://creativecommons.org/ns#ShareAlike" />
      </cc:License>
    </rdf:RDF>
  </metadata>
  <g
     inkscape:label="Layer 1"
     inkscape:groupmode="layer"
     id="layer1"
     transform="translate(0,-1004.3622)">
    <g
       id="g5012"
       transform="translate(1.105e-4,0.37640869)">
      <g
         id="g4979">
        <path
           id="rect4973"
           style="display:inline;opacity:1;fill:#434b5e;stroke-width:3;stroke-linecap:round;stroke-miterlimit:3"
           d="M 7.9998895 1037.3627 C 6.3378929 1037.3627 4.9998895 1038.7007 4.9998895 1040.3627 L 4.9998895 1047.3627 C 4.9998895 1049.0247 6.3378929 1050.3627 7.9998895 1050.3627 L 39.99989 1050.3627 C 41.661886 1050.3627 42.99989 1049.0247 42.99989 1047.3627 L 42.99989 1040.3627 C 42.99989 1038.7007 41.661886 1037.3627 39.99989 1037.3627 L 34.49989 1037.3627 C 34.49989 1043.1505 29.787611 1047.8627 23.999889 1047.8627 C 18.212169 1047.8627 13.499889 1043.1505 13.49989 1037.3627 L 7.9998895 1037.3627 z M 15.40028 1037.3627 C 15.40028 1042.1236 19.239003 1045.9624 23.999889 1045.9624 C 28.760777 1045.9624 32.599499 1042.1236 32.599499 1037.3627 L 30.249889 1037.3627 C 30.249889 1040.7968 27.433899 1043.6127 23.999889 1043.6127 C 21.047802 1043.6127 18.558151 1041.5289 17.915905 1038.7631 L 21.070202 1038.7631 C 21.588638 1039.8601 22.69251 1040.6127 23.999889 1040.6127 C 25.81258 1040.6127 27.249889 1039.1754 27.249889 1037.3627 L 15.40028 1037.3627 z " />
        <path
           id="rect4975"
           style="display:inline;opacity:1;fill:#434b5e;stroke-width:3;stroke-linecap:round;stroke-miterlimit:3"
           d="M 7.9998895 1024.3627 C 6.3378929 1024.3627 4.9998895 1025.7007 4.9998895 1027.3627 L 4.9998895 1034.3627 C 4.9998895 1036.0247 6.3378929 1037.3627 7.9998895 1037.3627 L 13.49989 1037.3627 C 13.499889 1031.5751 18.212169 1026.8627 23.999889 1026.8627 C 29.787611 1026.8627 34.499889 1031.5751 34.49989 1037.3627 L 39.99989 1037.3627 C 41.661886 1037.3627 42.99989 1036.0247 42.99989 1034.3627 L 42.99989 1027.3627 C 42.99989 1025.7007 41.661886 1024.3627 39.99989 1024.3627 L 7.9998895 1024.3627 z M 23.999889 1028.7631 C 19.239003 1028.7631 15.40028 1032.6019 15.40028 1037.3627 L 27.249889 1037.3627 C 27.249889 1035.5501 25.81258 1034.1127 23.999889 1034.1127 C 22.774689 1034.1127 21.733892 1034.7778 21.179577 1035.7631 L 17.966686 1035.7631 C 18.6801 1033.0974 21.11923 1031.1127 23.999889 1031.1127 C 27.433899 1031.1127 30.249889 1033.9287 30.249889 1037.3627 L 32.599499 1037.3627 C 32.599499 1032.6019 28.760777 1028.7631 23.999889 1028.7631 z " />
        <path
           id="rect4977"
           style="display:inline;opacity:1;fill:#434b5e;stroke-width:3;stroke-linecap:round;stroke-miterlimit:3"
           d="m 7.9998895,1025.3627 c -1.6619966,0 -3,1.2355 -3,2.7696 v 18.4609 c 0,1.5341 1.3380034,2.7695 3,2.7695 H 39.99989 c 1.661996,0 3,-1.2354 3,-2.7695 v -18.4609 c 0,-1.5341 -1.338004,-2.7696 -3,-2.7696 z m 15.9999995,1.5 c 5.787722,0 10.5,4.7124 10.500001,10.5 0,5.7878 -4.712279,10.5 -10.500001,10.5 -5.78772,0 -10.499999,-4.7122 -10.499999,-10.5 -1e-6,-5.7876 4.712279,-10.5 10.499999,-10.5 z m 0,1.9004 c -4.760886,0 -8.599609,3.8388 -8.599609,8.5996 0,4.7609 3.838723,8.5997 8.599609,8.5997 4.760888,0 8.59961,-3.8388 8.59961,-8.5997 0,-4.7608 -3.838722,-8.5996 -8.59961,-8.5996 z m 0,2.3496 c 3.43401,0 6.25,2.816 6.25,6.25 0,3.4341 -2.81599,6.25 -6.25,6.25 -2.952087,0 -5.441738,-2.0838 -6.083984,-4.8496 h 3.154297 c 0.518436,1.097 1.622308,1.8496 2.929687,1.8496 1.812691,0 3.25,-1.4373 3.25,-3.25 0,-1.8126 -1.437309,-3.25 -3.25,-3.25 -1.2252,0 -2.265997,0.6651 -2.820312,1.6504 h -3.212891 c 0.713414,-2.6657 3.152544,-4.6504 6.033203,-4.6504 z" />
      </g>
      <g
         id="g4179"
         transform="matrix(-1,0,0,1,47.999779,0)"
         style="fill:#434b5e;fill-opacity:1">
        <path
           style="fill:#434b5e;fill-opacity:1;fill-rule:evenodd;stroke:#769616;stroke-width:2.5;stroke-linecap:round;stroke-linejoin:miter;stroke-miterlimit:4;stroke-dasharray:none;stroke-opacity:1"
           d="m 2.5889342,1006.8622 4.25,5.5"
           id="path4181"
           inkscape:connector-curvature="0"
           sodipodi:nodetypes="cc" />
        <path
           sodipodi:nodetypes="cccccc"
           inkscape:connector-curvature="0"
           id="path4183"
           d="m 2.6113281,1005.6094 c -0.4534623,0.012 -0.7616975,0.189 -0.9807462,0.4486 2.0269314,2.4089 2.368401,2.7916 5.1354735,6.2214 1.0195329,1.319 2.0816026,0.6373 1.0620696,-0.6817 l -4.25,-5.5 c -0.2289894,-0.3056 -0.5850813,-0.478 -0.9667969,-0.4883 z"
           style="color:#000000;font-style:normal;font-variant:normal;font-weight:normal;font-stretch:normal;font-size:medium;line-height:normal;font-family:sans-serif;text-indent:0;text-align:start;text-decoration:none;text-decoration-line:none;text-decoration-style:solid;text-decoration-color:#000000;letter-spacing:normal;word-spacing:normal;text-transform:none;writing-mode:lr-tb;direction:ltr;baseline-shift:baseline;text-anchor:start;white-space:normal;clip-rule:nonzero;display:inline;overflow:visible;visibility:visible;opacity:1;isolation:auto;mix-blend-mode:normal;color-interpolation:sRGB;color-interpolation-filters:linearRGB;solid-color:#000000;solid-opacity:1;fill:#434b5e;fill-opacity:1;fill-rule:evenodd;stroke:none;stroke-width:2.5;stroke-linecap:round;stroke-linejoin:miter;stroke-miterlimit:4;stroke-dasharray:none;stroke-dashoffset:0;stroke-opacity:1;color-rendering:auto;image-rendering:auto;shape-rendering:auto;text-rendering:auto;enable-background:accumulate" />
        <path
           sodipodi:nodetypes="ccccc"
           inkscape:connector-curvature="0"
           id="path4185"
           d="m 1.6220992,1006.0705 c -0.1238933,0.1479 -0.561176,0.8046 -0.02249,1.5562 l 4.25,5.5 c 1.0195329,1.319 1.1498748,-0.6123 1.1498748,-0.6123 0,0 -3.7344514,-4.51 -5.3773848,-6.4439 z"
           style="color:#000000;font-style:normal;font-variant:normal;font-weight:normal;font-stretch:normal;font-size:medium;line-height:normal;font-family:sans-serif;text-indent:0;text-align:start;text-decoration:none;text-decoration-line:none;text-decoration-style:solid;text-decoration-color:#000000;letter-spacing:normal;word-spacing:normal;text-transform:none;writing-mode:lr-tb;direction:ltr;baseline-shift:baseline;text-anchor:start;white-space:normal;clip-rule:nonzero;display:inline;overflow:visible;visibility:visible;opacity:1;isolation:auto;mix-blend-mode:normal;color-interpolation:sRGB;color-interpolation-filters:linearRGB;solid-color:#000000;solid-opacity:1;fill:#434b5e;fill-opacity:1;fill-rule:evenodd;stroke:none;stroke-width:2.5;stroke-linecap:round;stroke-linejoin:miter;stroke-miterlimit:4;stroke-dasharray:none;stroke-dashoffset:0;stroke-opacity:1;color-rendering:auto;image-rendering:auto;shape-rendering:auto;text-rendering:auto;enable-background:accumulate" />
        <path
           sodipodi:nodetypes="cscccc"
           inkscape:connector-curvature="0"
           id="path4187"
           d="m 2.3378905,1005.8443 c -0.438175,0 -0.959862,0.1416 -0.8242183,0.7986 0.103561,0.5016 4.6608262,6.0744 4.6608262,6.0744 1.0195329,1.319 2.4934721,0.6763 1.4739391,-0.6425 l -4.234375,-5.4727 c -0.2602394,-0.29 -0.6085188,-0.7436 -1.076172,-0.7578 z"
           style="color:#000000;font-style:normal;font-variant:normal;font-weight:normal;font-stretch:normal;font-size:medium;line-height:normal;font-family:sans-serif;text-indent:0;text-align:start;text-decoration:none;text-decoration-line:none;text-decoration-style:solid;text-decoration-color:#000000;letter-spacing:normal;word-spacing:normal;text-transform:none;writing-mode:lr-tb;direction:ltr;baseline-shift:baseline;text-anchor:start;white-space:normal;clip-rule:nonzero;display:inline;overflow:visible;visibility:visible;opacity:1;isolation:auto;mix-blend-mode:normal;color-interpolation:sRGB;color-interpolation-filters:linearRGB;solid-color:#000000;solid-opacity:1;fill:#434b5e;fill-opacity:1;fill-rule:evenodd;stroke:none;stroke-width:2.5;stroke-linecap:round;stroke-linejoin:miter;stroke-miterlimit:4;stroke-dasharray:none;stroke-dashoffset:0;stroke-opacity:1;color-rendering:auto;image-rendering:auto;shape-rendering:auto;text-rendering:auto;enable-background:accumulate" />
      </g>
      <g
         id="g4955"
         style="fill:#434b5e;fill-opacity:1">
        <path
           sodipodi:nodetypes="cc"
           inkscape:connector-curvature="0"
           id="path4945"
           d="m 2.5889342,1006.8622 4.25,5.5"
           style="fill:#434b5e;fill-opacity:1;fill-rule:evenodd;stroke:#769616;stroke-width:2.5;stroke-linecap:round;stroke-linejoin:miter;stroke-miterlimit:4;stroke-dasharray:none;stroke-opacity:1" />
        <path
           style="color:#000000;font-style:normal;font-variant:normal;font-weight:normal;font-stretch:normal;font-size:medium;line-height:normal;font-family:sans-serif;text-indent:0;text-align:start;text-decoration:none;text-decoration-line:none;text-decoration-style:solid;text-decoration-color:#000000;letter-spacing:normal;word-spacing:normal;text-transform:none;writing-mode:lr-tb;direction:ltr;baseline-shift:baseline;text-anchor:start;white-space:normal;clip-rule:nonzero;display:inline;overflow:visible;visibility:visible;opacity:1;isolation:auto;mix-blend-mode:normal;color-interpolation:sRGB;color-interpolation-filters:linearRGB;solid-color:#000000;solid-opacity:1;fill:#434b5e;fill-opacity:1;fill-rule:evenodd;stroke:none;stroke-width:2.5;stroke-linecap:round;stroke-linejoin:miter;stroke-miterlimit:4;stroke-dasharray:none;stroke-dashoffset:0;stroke-opacity:1;color-rendering:auto;image-rendering:auto;shape-rendering:auto;text-rendering:auto;enable-background:accumulate"
           d="m 2.6113281,1005.6094 c -0.4534623,0.012 -0.7616975,0.189 -0.9807462,0.4486 2.0269314,2.4089 2.368401,2.7916 5.1354735,6.2214 1.0195329,1.319 2.0816026,0.6373 1.0620696,-0.6817 l -4.25,-5.5 c -0.2289894,-0.3056 -0.5850813,-0.478 -0.9667969,-0.4883 z"
           id="path4947"
           inkscape:connector-curvature="0"
           sodipodi:nodetypes="cccccc" />
        <path
           style="color:#000000;font-style:normal;font-variant:normal;font-weight:normal;font-stretch:normal;font-size:medium;line-height:normal;font-family:sans-serif;text-indent:0;text-align:start;text-decoration:none;text-decoration-line:none;text-decoration-style:solid;text-decoration-color:#000000;letter-spacing:normal;word-spacing:normal;text-transform:none;writing-mode:lr-tb;direction:ltr;baseline-shift:baseline;text-anchor:start;white-space:normal;clip-rule:nonzero;display:inline;overflow:visible;visibility:visible;opacity:1;isolation:auto;mix-blend-mode:normal;color-interpolation:sRGB;color-interpolation-filters:linearRGB;solid-color:#000000;solid-opacity:1;fill:#434b5e;fill-opacity:1;fill-rule:evenodd;stroke:none;stroke-width:2.5;stroke-linecap:round;stroke-linejoin:miter;stroke-miterlimit:4;stroke-dasharray:none;stroke-dashoffset:0;stroke-opacity:1;color-rendering:auto;image-rendering:auto;shape-rendering:auto;text-rendering:auto;enable-background:accumulate"
           d="m 1.6220992,1006.0705 c -0.1238933,0.1479 -0.561176,0.8046 -0.02249,1.5562 l 4.25,5.5 c 1.0195329,1.319 1.1498748,-0.6123 1.1498748,-0.6123 0,0 -3.7344514,-4.51 -5.3773848,-6.4439 z"
           id="path4951"
           inkscape:connector-curvature="0"
           sodipodi:nodetypes="ccccc" />
        <path
           style="color:#000000;font-style:normal;font-variant:normal;font-weight:normal;font-stretch:normal;font-size:medium;line-height:normal;font-family:sans-serif;text-indent:0;text-align:start;text-decoration:none;text-decoration-line:none;text-decoration-style:solid;text-decoration-color:#000000;letter-spacing:normal;word-spacing:normal;text-transform:none;writing-mode:lr-tb;direction:ltr;baseline-shift:baseline;text-anchor:start;white-space:normal;clip-rule:nonzero;display:inline;overflow:visible;visibility:visible;opacity:1;isolation:auto;mix-blend-mode:normal;color-interpolation:sRGB;color-interpolation-filters:linearRGB;solid-color:#000000;solid-opacity:1;fill:#434b5e;fill-opacity:1;fill-rule:evenodd;stroke:none;stroke-width:2.5;stroke-linecap:round;stroke-linejoin:miter;stroke-miterlimit:4;stroke-dasharray:none;stroke-dashoffset:0;stroke-opacity:1;color-rendering:auto;image-rendering:auto;shape-rendering:auto;text-rendering:auto;enable-background:accumulate"
           d="m 2.3378905,1005.8443 c -0.438175,0 -0.959862,0.1416 -0.8242183,0.7986 0.103561,0.5016 4.6608262,6.0744 4.6608262,6.0744 1.0195329,1.319 2.4934721,0.6763 1.4739391,-0.6425 l -4.234375,-5.4727 c -0.2602394,-0.29 -0.6085188,-0.7436 -1.076172,-0.7578 z"
           id="path4925"
           inkscape:connector-curvature="0"
           sodipodi:nodetypes="cscccc" />
      </g>
      <g
         transform="translate(42)"
         id="g4967"
         style="fill:#434b5e;fill-opacity:1">
        <path
           id="rect4144"
           style="display:inline;opacity:1;fill:#434b5e;fill-opacity:1;stroke:none;stroke-width:3;stroke-linecap:round;stroke-linejoin:miter;stroke-miterlimit:3;stroke-dasharray:none;stroke-dashoffset:0;stroke-opacity:1"
           d="M -34.00011 1010.3627 C -35.662108 1010.3627 -37.00011 1011.7007 -37.00011 1013.3627 L -37.00011 1020.3627 C -37.00011 1022.0247 -35.662108 1023.3627 -34.00011 1023.3627 L -2.0001105 1023.3627 C -0.33811382 1023.3627 0.9998895 1022.0247 0.9998895 1020.3627 L 0.9998895 1013.3627 C 0.9998895 1011.7007 -0.33811382 1010.3627 -2.0001105 1010.3627 L -34.00011 1010.3627 z M -27.62511 1014.1127 A 3.375 3.375 0 0 1 -24.25011 1017.4877 A 3.375 3.375 0 0 1 -27.62511 1020.8627 A 3.375 3.375 0 0 1 -31.00011 1017.4877 A 3.375 3.375 0 0 1 -27.62511 1014.1127 z M -8.1251105 1014.1127 A 3.375 3.375 0 0 1 -4.7501105 1017.4877 A 3.375 3.375 0 0 1 -8.1251105 1020.8627 A 3.375 3.375 0 0 1 -11.50011 1017.4877 A 3.375 3.375 0 0 1 -8.1251105 1014.1127 z " />
        <path
           id="rect4961"
           style="display:inline;opacity:1;fill:#434b5e;fill-opacity:1;stroke:none;stroke-width:3;stroke-linecap:round;stroke-linejoin:miter;stroke-miterlimit:3;stroke-dasharray:none;stroke-dashoffset:0;stroke-opacity:1"
           d="M -34.00011 1013.3627 C -35.662108 1013.3627 -37.00011 1014.7007 -37.00011 1016.3627 L -37.00011 1020.3627 C -37.00011 1022.0247 -35.662108 1023.3627 -34.00011 1023.3627 L -2.0001105 1023.3627 C -0.33811382 1023.3627 0.9998895 1022.0247 0.9998895 1020.3627 L 0.9998895 1016.3627 C 0.9998895 1014.7007 -0.33811382 1013.3627 -2.0001105 1013.3627 L -34.00011 1013.3627 z M -27.62511 1014.1127 A 3.375 3.375 0 0 1 -24.25011 1017.4877 A 3.375 3.375 0 0 1 -27.62511 1020.8627 A 3.375 3.375 0 0 1 -31.00011 1017.4877 A 3.375 3.375 0 0 1 -27.62511 1014.1127 z M -8.1251105 1014.1127 A 3.375 3.375 0 0 1 -4.7501105 1017.4877 A 3.375 3.375 0 0 1 -8.1251105 1020.8627 A 3.375 3.375 0 0 1 -11.50011 1017.4877 A 3.375 3.375 0 0 1 -8.1251105 1014.1127 z " />
        <path
           id="rect4963"
           style="display:inline;opacity:1;fill:#434b5e;fill-opacity:1;stroke:none;stroke-width:3;stroke-linecap:round;stroke-linejoin:miter;stroke-miterlimit:3;stroke-dasharray:none;stroke-dashoffset:0;stroke-opacity:1"
           d="M -34.00011 1010.3627 C -35.662108 1010.3627 -37.00011 1011.7007 -37.00011 1013.3627 L -37.00011 1017.3627 C -37.00011 1019.0247 -35.662108 1020.3627 -34.00011 1020.3627 L -29.382923 1020.3627 A 3.375 3.375 0 0 1 -31.00011 1017.4877 A 3.375 3.375 0 0 1 -27.62511 1014.1127 A 3.375 3.375 0 0 1 -24.25011 1017.4877 A 3.375 3.375 0 0 1 -25.867298 1020.3627 L -9.882923 1020.3627 A 3.375 3.375 0 0 1 -11.50011 1017.4877 A 3.375 3.375 0 0 1 -8.1251105 1014.1127 A 3.375 3.375 0 0 1 -4.7501105 1017.4877 A 3.375 3.375 0 0 1 -6.367298 1020.3627 L -2.0001105 1020.3627 C -0.33811382 1020.3627 0.9998895 1019.0247 0.9998895 1017.3627 L 0.9998895 1013.3627 C 0.9998895 1011.7007 -0.33811382 1010.3627 -2.0001105 1010.3627 L -34.00011 1010.3627 z " />
        <path
           id="rect4965"
           style="opacity:1;fill:#434b5e;fill-opacity:1;stroke:none;stroke-width:3;stroke-linecap:round;stroke-linejoin:miter;stroke-miterlimit:3;stroke-dasharray:none;stroke-dashoffset:0;stroke-opacity:1"
           d="M -34.00011 1011.3627 C -35.662108 1011.3627 -37.00011 1012.4935 -37.00011 1013.8999 L -37.00011 1019.8237 C -37.00011 1021.23 -35.662108 1022.3627 -34.00011 1022.3627 L -2.0001105 1022.3627 C -0.33811382 1022.3627 0.9998895 1021.23 0.9998895 1019.8237 L 0.9998895 1013.8999 C 0.9998895 1012.4935 -0.33811382 1011.3627 -2.0001105 1011.3627 L -34.00011 1011.3627 z M -27.62511 1014.1127 A 3.375 3.375 0 0 1 -24.25011 1017.4877 A 3.375 3.375 0 0 1 -27.62511 1020.8627 A 3.375 3.375 0 0 1 -31.00011 1017.4877 A 3.375 3.375 0 0 1 -27.62511 1014.1127 z M -8.1251105 1014.1127 A 3.375 3.375 0 0 1 -4.7501105 1017.4877 A 3.375 3.375 0 0 1 -8.1251105 1020.8627 A 3.375 3.375 0 0 1 -11.50011 1017.4877 A 3.375 3.375 0 0 1 -8.1251105 1014.1127 z " />
      </g>
      <g
         transform="translate(0,1013.3622)"
         id="g4211"
         style="display:inline" />
      <g
         id="g4989"
         transform="translate(0,0.50001738)" />
      <g
         transform="translate(19.5,0.50001738)"
         id="g4171" />
      <g
         transform="translate(0,1013.3622)"
         id="g14"
         style="display:inline" />
    </g>
  </g>
</svg>
