<?xml version="1.0" encoding="UTF-8" standalone="no"?>
<!-- Created with Inkscape (http://www.inkscape.org/) -->

<svg
   width="26.296631mm"
   height="26.296631mm"
   viewBox="0 0 26.296631 26.296631"
   version="1.1"
   id="svg5"
   inkscape:version="1.2.2 (b0a8486541, 2022-12-01)"
   sodipodi:docname="logo3.svg"
   xml:space="preserve"
   inkscape:export-filename="logo3.png"
   inkscape:export-xdpi="25.4"
   inkscape:export-ydpi="25.4"
   xmlns:inkscape="http://www.inkscape.org/namespaces/inkscape"
   xmlns:sodipodi="http://sodipodi.sourceforge.net/DTD/sodipodi-0.dtd"
   xmlns:xlink="http://www.w3.org/1999/xlink"
   xmlns="http://www.w3.org/2000/svg"
   xmlns:svg="http://www.w3.org/2000/svg"><sodipodi:namedview
     id="namedview7"
     pagecolor="#505050"
     bordercolor="#eeeeee"
     borderopacity="1"
     inkscape:showpageshadow="0"
     inkscape:pageopacity="0"
     inkscape:pagecheckerboard="0"
     inkscape:deskcolor="#505050"
     inkscape:document-units="mm"
     showgrid="false"
     inkscape:zoom="0.26852674"
     inkscape:cx="-134.06486"
     inkscape:cy="616.32595"
     inkscape:window-width="1920"
     inkscape:window-height="1015"
     inkscape:window-x="0"
     inkscape:window-y="0"
     inkscape:window-maximized="1"
     inkscape:current-layer="layer1"
     showguides="true" /><defs
     id="defs2"><filter
       inkscape:collect="always"
       style="color-interpolation-filters:sRGB"
       id="filter21633"
       x="-0.39840728"
       y="-0.26542094"
       width="1.7968146"
       height="1.5308419"><feGaussianBlur
         inkscape:collect="always"
         stdDeviation="7.4228054"
         id="feGaussianBlur21635" /></filter><clipPath
       clipPathUnits="userSpaceOnUse"
       id="clipPath89973"><use
         x="0"
         y="0"
         xlink:href="#g89969"
         id="use89975" /></clipPath></defs><g
     inkscape:label="Layer 1"
     inkscape:groupmode="layer"
     id="layer1"
     transform="translate(309.1475,-229.6312)"><g
       id="g89971"
       clip-path="url(#clipPath89973)"
       transform="translate(-346.33828,-0.21982123)"
       inkscape:export-filename="./logo.png"
       inkscape:export-xdpi="494.54263"
       inkscape:export-ydpi="494.54263"><g
         inkscape:label="Clip"
         id="g89969"><g
           id="g89930"
           inkscape:label="onyx_flat_creux"
           transform="matrix(0.54605133,0,0,0.54605133,35.059751,173.59735)"><path
             id="path89882"
             style="opacity:1;stroke-width:1;stroke-linejoin:round;stroke-dasharray:none"
             d="m 51.756531,123.34389 -3.75481,3.75378 3.755327,3.75429 a 24.078825,24.078825 0 0 0 0.30334,-3.75429 24.078825,24.078825 0 0 0 -0.303857,-3.75378 z" /><path
             id="path89884"
             style="opacity:1;stroke-width:1;stroke-linejoin:round;stroke-dasharray:none"
             d="m 42.138513,113.94137 v 7.29309 l 5.156275,5.15627 4.243151,-4.24211 a 24.078825,24.078825 0 0 0 -3.391524,-8.20725 z" /><path
             id="path89886"
             style="opacity:1;stroke-width:1;stroke-linejoin:round;stroke-dasharray:none"
             d="m 47.439482,141.25391 h -5.300969 v 3.98064 1.33893 a 24.078825,24.078825 0 0 0 5.300969,-5.31957 z" /><path
             id="path89888"
             style="opacity:1;stroke-width:1;stroke-linejoin:round;stroke-dasharray:none"
             d="m 47.294788,127.8046 -5.156275,5.15628 v 7.29309 h 5.987748 a 24.078825,24.078825 0 0 0 3.411678,-8.20725 z" /><path
             id="path89890"
             style="opacity:1;stroke-width:1;stroke-linejoin:round;stroke-dasharray:none"
             d="m 46.587854,127.09767 -4.449341,-4.44934 v 8.89868 z" /><path
             id="path89892"
             style="opacity:1;stroke-width:1;stroke-linejoin:round;stroke-dasharray:none"
             d="m 41.138574,120.23452 v -6.29315 h -6.293156 z" /><path
             id="path89894"
             style="opacity:1;stroke-width:1;stroke-linejoin:round;stroke-dasharray:none"
             d="m 41.138574,141.25391 h -7.293095 l -5.157308,5.15731 4.243152,4.24315 a 24.078825,24.078825 0 0 0 8.207251,-3.39152 v -2.0283 z" /><path
             id="path89896"
             style="opacity:1;stroke-width:1;stroke-linejoin:round;stroke-dasharray:none"
             d="m 41.138574,133.96082 -6.293156,6.29315 h 6.293156 z" /><path
             id="path89898"
             style="opacity:1;stroke-width:1;stroke-linejoin:round;stroke-dasharray:none"
             d="m 32.431612,141.25391 h -8.900749 l 4.450375,4.45037 z" /><path
             id="path89900"
             style="opacity:1;stroke-width:1;stroke-linejoin:round;stroke-dasharray:none"
             d="m 24.227462,150.87193 a 24.078825,24.078825 0 0 0 3.754293,0.30489 24.078825,24.078825 0 0 0 3.754809,-0.30334 l -3.755326,-3.75533 z" /><path
             id="path89902"
             style="opacity:1;stroke-width:1;stroke-linejoin:round;stroke-dasharray:none"
             d="m 22.116996,141.25391 h -7.292578 v 3.42356 2.57917 a 24.078825,24.078825 0 0 0 8.208285,3.39618 l 4.241601,-4.2416 z" /><path
             id="path89904"
             style="opacity:1;stroke-width:1;stroke-linejoin:round;stroke-dasharray:none"
             d="m 14.824418,133.96133 v 6.29264 h 6.292639 z" /><path
             id="path89906"
             style="opacity:1;stroke-width:1;stroke-linejoin:round;stroke-dasharray:none"
             d="m 13.823962,131.54701 v -8.89868 l -4.4493404,4.44934 z" /><path
             id="path89908"
             style="opacity:1;stroke-width:1;stroke-linejoin:round;stroke-dasharray:none"
             d="M 13.823962,141.25391 H 10.656197 8.531779 a 24.078825,24.078825 0 0 0 5.292183,5.30304 v -1.87948 z" /><path
             id="path89910"
             style="opacity:1;stroke-width:1;stroke-linejoin:round;stroke-dasharray:none"
             d="m 8.667688,127.8046 -4.2447022,4.2447 a 24.078825,24.078825 0 0 0 3.4199463,8.20467 h 2.8132649 3.167765 v -7.29309 z" /><path
             id="path89912"
             style="opacity:1;stroke-width:1;stroke-linejoin:round;stroke-dasharray:none"
             d="m 14.824418,120.234 6.292639,-6.29263 h -6.292639 z" /><path
             id="path89914"
             style="opacity:1;stroke-width:1;stroke-linejoin:round;stroke-dasharray:none"
             d="m 8.667688,126.39073 5.156274,-5.15627 v -7.29309 H 10.656197 7.821228 a 24.078825,24.078825 0 0 0 -3.3951416,8.20776 z" /><path
             id="path89916"
             style="opacity:1;stroke-width:1;stroke-linejoin:round;stroke-dasharray:none"
             d="m 4.2074951,123.34441 a 24.078825,24.078825 0 0 0 -0.3048909,3.75326 24.078825,24.078825 0 0 0 0.3038574,3.75429 l 3.7542928,-3.75429 z" /><path
             id="path89918"
             style="opacity:1;stroke-width:1;stroke-linejoin:round;stroke-dasharray:none"
             d="m 42.138513,112.94143 h 5.319055 a 24.078825,24.078825 0 0 0 -5.319055,-5.30407 z" /><path
             id="path89920"
             style="opacity:1;stroke-width:1;stroke-linejoin:round;stroke-dasharray:none"
             d="m 33.845479,112.94143 h 7.293095 v -5.99292 a 24.078825,24.078825 0 0 0 -8.211385,-3.40341 l -4.239018,4.23902 z" /><path
             id="path89922"
             style="opacity:1;stroke-width:1;stroke-linejoin:round;stroke-dasharray:none"
             d="m 27.981238,108.49105 -4.450375,4.45038 h 8.900749 z" /><path
             id="path89924"
             style="opacity:1;stroke-width:1;stroke-linejoin:round;stroke-dasharray:none"
             d="m 27.981238,107.07719 3.751709,-3.75171 a 24.078825,24.078825 0 0 0 -3.751192,-0.30645 24.078825,24.078825 0 0 0 -3.753776,0.3049 z" /><path
             id="path89926"
             style="opacity:1;stroke-width:1;stroke-linejoin:round;stroke-dasharray:none"
             d="m 14.824418,112.94143 h 7.292578 l 5.157308,-5.15731 -4.241085,-4.24109 a 24.078825,24.078825 0 0 0 -8.208801,3.41685 z" /><path
             id="path89928"
             style="opacity:1;stroke-width:1;stroke-linejoin:round;stroke-dasharray:none"
             d="m 13.823962,107.64821 a 24.078825,24.078825 0 0 0 -5.3082027,5.29322 h 2.1404377 3.167765 z" /></g></g><g
         id="g89938"
         style="filter:url(#filter21633)"
         inkscape:label="couleur"
         transform="translate(12.287243,188.84361)"><path
           style="fill:#8f25a7;fill-opacity:1;stroke:none;stroke-width:0.264583px;stroke-linecap:butt;stroke-linejoin:miter;stroke-opacity:1"
           d="M 38.05184,20.596327 38.051827,54.15572 60.40928,70.935423 V 37.376025 L 38.05184,20.596327"
           id="path89932"
           inkscape:label="coucleur_droit" /><path
           style="fill:#594fa7;fill-opacity:1;stroke:none;stroke-width:0.264583px;stroke-linecap:butt;stroke-linejoin:miter;stroke-opacity:1"
           d="M 15.694403,70.93542 38.051827,54.15572 38.05184,20.596327 15.694403,37.376025 Z"
           id="path89934"
           inkscape:label="couleur_gauche" /><path
           style="fill:#ac5676;fill-opacity:1;stroke:none;stroke-width:0.264583px;stroke-linecap:butt;stroke-linejoin:miter;stroke-opacity:1"
           d="M 38.051827,54.15572 60.40928,70.935423 38.05184,87.715121 15.694403,70.935418 38.051827,54.15572"
           id="path89936"
           inkscape:label="couleur_bas" /></g></g><g
       id="g92042"
       inkscape:label="onyx_flat"
       transform="matrix(0.54605133,0,0,0.54605133,-311.27853,173.37752)"><path
         id="path92010"
         style="display:inline;opacity:1;stroke-width:1;stroke-linejoin:round;stroke-dasharray:none"
         d="m 22.530924,113.94137 -7.706506,7.7065 v 10.8996 l 7.706506,7.7065 h 10.900627 l 7.707023,-7.70702 v -10.89856 l -7.707023,-7.70702 z" /></g></g></svg>
