<?xml version="1.0" encoding="UTF-8" standalone="no"?>
<!-- Created with Inkscape (http://www.inkscape.org/) -->

<svg
   width="144.17241mm"
   height="144.1544mm"
   viewBox="0 0 144.17241 144.1544"
   version="1.1"
   id="svg5"
   inkscape:version="1.2.2 (b0a8486541, 2022-12-01)"
   sodipodi:docname="Onyx_v16_onyx.svg"
   xmlns:inkscape="http://www.inkscape.org/namespaces/inkscape"
   xmlns:sodipodi="http://sodipodi.sourceforge.net/DTD/sodipodi-0.dtd"
   xmlns="http://www.w3.org/2000/svg"
   xmlns:svg="http://www.w3.org/2000/svg">
  <sodipodi:namedview
     id="namedview7"
     pagecolor="#505050"
     bordercolor="#eeeeee"
     borderopacity="1"
     inkscape:showpageshadow="0"
     inkscape:pageopacity="0"
     inkscape:pagecheckerboard="0"
     inkscape:deskcolor="#505050"
     inkscape:document-units="mm"
     showgrid="false"
     showguides="false"
     inkscape:zoom="0.74742566"
     inkscape:cx="256.88173"
     inkscape:cy="260.89551"
     inkscape:window-width="1280"
     inkscape:window-height="1011"
     inkscape:window-x="1280"
     inkscape:window-y="32"
     inkscape:window-maximized="0"
     inkscape:current-layer="layer1" />
  <defs
     id="defs2">
    <linearGradient
       id="linearGradient4353"
       inkscape:swatch="solid">
      <stop
         style="stop-color:#000000;stop-opacity:1;"
         offset="0"
         id="stop4351" />
    </linearGradient>
  </defs>
  <g
     inkscape:label="Layer 1"
     inkscape:groupmode="layer"
     id="layer1"
     transform="translate(-32.917046,-72.614689)">
    <path
       style="fill:#000000;fill-opacity:1;stroke:none;stroke-width:0;stroke-linejoin:miter;stroke-miterlimit:4;stroke-dasharray:none;stroke-dashoffset:0;stroke-opacity:1;paint-order:fill markers stroke"
       d="m 86.471208,163.12648 c -1.453197,-1.45938 -2.734603,-3.09059 -3.81062,-4.8612 l -21.023523,22.00227 a 83.037494,53.280912 0 0 0 6.31641,2.23914 z"
       id="path3339" />
    <path
       style="fill:#000000;fill-opacity:1;stroke:none;stroke-width:0;stroke-linejoin:miter;stroke-miterlimit:4;stroke-dasharray:none;stroke-dashoffset:0;stroke-opacity:1;paint-order:fill markers stroke"
       d="m 123.54078,163.11459 -18.5291,-19.39158 -18.540472,19.40347 c 4.724169,4.74427 11.269742,7.67291 18.524972,7.67291 h 0.008 c 7.2613,0 13.81178,-2.9335 18.53685,-7.6848 z"
       id="path3337" />
    <path
       id="rect22998-9-0"
       style="fill:#000000;fill-opacity:1;stroke:none;stroke-width:0;stroke-linejoin:miter;stroke-miterlimit:4;stroke-dasharray:none;stroke-dashoffset:0;stroke-opacity:1;paint-order:fill markers stroke"
       d="m 50.002613,184.13904 -17.06872,17.06872 v 15.56133 h 15.60887 l 17.04495,-17.04495 z" />
    <path
       style="fill:#000000;fill-opacity:1;stroke:none;stroke-width:0;stroke-linejoin:miter;stroke-miterlimit:4;stroke-dasharray:none;stroke-dashoffset:0;stroke-opacity:1;paint-order:fill markers stroke"
       d="m 127.3483,158.25029 c -1.07498,1.77161 -2.3551,3.40382 -3.80752,4.8643 l 18.5291,19.3921 a 83.037494,53.280912 0 0 0 6.31589,-2.23914 z"
       id="path3335" />
    <path
       style="fill:#000000;fill-opacity:1;stroke:none;stroke-width:0;stroke-linejoin:miter;stroke-miterlimit:4;stroke-dasharray:none;stroke-dashoffset:0;stroke-opacity:1;paint-order:fill markers stroke"
       d="m 104.99618,118.56021 c -14.470354,0 -26.119858,11.64898 -26.119858,26.11933 0,4.98335 1.381613,9.6321 3.784266,13.58574 l 22.351092,-23.39186 22.33662,23.37687 c 2.397,-3.95037 3.77496,-8.59373 3.77496,-13.57075 0,-14.47035 -11.64898,-26.11933 -26.11933,-26.11933 z"
       id="rect22998-9-3-4-4" />
    <path
       id="path23530"
       style="fill:#000000;fill-opacity:1;stroke:none;stroke-width:0;stroke-linejoin:miter;stroke-miterlimit:4;stroke-dasharray:none;stroke-dashoffset:0;stroke-opacity:1;paint-order:fill markers stroke"
       d="m 105.01161,149.80106 -43.374497,45.39429 a 83.037494,53.280912 0 0 0 43.374497,7.88649 83.037494,53.280912 0 0 0 43.37451,-7.88649 z" />
    <path
       style="fill:#ffffff;fill-opacity:1;stroke:none;stroke-width:0;stroke-linejoin:miter;stroke-miterlimit:4;stroke-dasharray:none;stroke-dashoffset:0;stroke-opacity:1;paint-order:fill markers stroke"
       d="M 177.08945,110.18036 V 72.614689 h -37.56567 a 79.968788,79.968788 0 0 1 37.56567,37.565671 z"
       id="path20493" />
    <path
       style="fill:#ffffff;fill-opacity:1;stroke:none;stroke-width:0;stroke-linejoin:miter;stroke-miterlimit:4;stroke-dasharray:none;stroke-dashoffset:0;stroke-opacity:1;paint-order:fill markers stroke"
       d="m 161.15657,72.614689 a 153.46216,153.46216 0 0 1 -56.15679,45.945521 h 31.03843 a 87.388161,87.388161 0 0 0 41.05124,-41.051251 v -4.89427 z"
       id="path23528" />
    <path
       style="fill:#ffffff;fill-opacity:1;stroke:none;stroke-width:0;stroke-linejoin:miter;stroke-miterlimit:4;stroke-dasharray:none;stroke-dashoffset:0;stroke-opacity:1;paint-order:fill markers stroke"
       d="m 164.25147,103.65259 a 87.388161,87.388161 0 0 1 -17.6537,13.22968 50.062149,50.062149 0 0 1 1.75752,2.76624 50.062149,50.062149 0 0 1 -18.32447,68.38601 50.062149,50.062149 0 0 1 -68.386007,-18.32395 50.062149,50.062149 0 0 1 -6.70708,-25.03103 h -22.00383 a 72.089493,72.089493 0 0 0 9.63456,36.04483 72.089493,72.089493 0 0 0 98.476157,26.3865 72.089493,72.089493 0 0 0 26.3865,-98.47616 72.089493,72.089493 0 0 0 -3.17965,-4.98212 z"
       id="path23678" />
    <path
       style="fill:#ffffff;fill-opacity:1;stroke:none;stroke-width:0;stroke-linejoin:miter;stroke-miterlimit:4;stroke-dasharray:none;stroke-dashoffset:0;stroke-opacity:1;paint-order:fill markers stroke"
       d="m 104.99978,72.614689 v 22.02656 a 50.062149,50.062149 0 0 1 1.54203,0 50.062149,50.062149 0 0 1 28.5316,10.057791 153.46216,153.46216 0 0 0 16.96434,-14.569141 72.089493,72.089493 0 0 0 -47.03797,-17.51521 z"
       id="path23528-6" />
    <rect
       style="fill:#000000;fill-opacity:1;stroke:none;stroke-width:0;stroke-linejoin:miter;stroke-miterlimit:4;stroke-dasharray:none;stroke-dashoffset:0;stroke-opacity:1;paint-order:fill markers stroke"
       id="rect22998-9"
       width="70.318581"
       height="22.040785"
       x="72.631538"
       y="32.917046"
       ry="0"
       transform="matrix(0,1,1,0,0,0)" />
    <rect
       style="fill:#000000;fill-opacity:1;stroke:none;stroke-width:0;stroke-linejoin:miter;stroke-miterlimit:4;stroke-dasharray:none;stroke-dashoffset:0;stroke-opacity:1;paint-order:fill markers stroke"
       id="rect22998-1"
       width="22.044003"
       height="22.040785"
       x="72.631538"
       y="57.072792"
       transform="matrix(0,1,1,0,0,0)" />
    <rect
       style="fill:#ffffff;fill-opacity:1;stroke:none;stroke-width:0;stroke-linejoin:miter;stroke-miterlimit:4;stroke-dasharray:none;stroke-dashoffset:0;stroke-opacity:1;paint-order:fill markers stroke"
       id="rect22998-9-9"
       width="22.044003"
       height="22.040785"
       x="96.529915"
       y="57.072792"
       transform="matrix(0,1,1,0,0,0)" />
    <rect
       style="fill:#ffffff;fill-opacity:1;stroke:none;stroke-width:0;stroke-linejoin:miter;stroke-miterlimit:4;stroke-dasharray:none;stroke-dashoffset:0;stroke-opacity:1;paint-order:fill markers stroke"
       id="rect22998-1-7"
       width="22.044003"
       height="22.040785"
       x="72.631538"
       y="81.228539"
       transform="matrix(0,1,1,0,0,0)" />
    <rect
       style="fill:#000000;fill-opacity:1;stroke:none;stroke-width:0;stroke-linejoin:miter;stroke-miterlimit:4;stroke-dasharray:none;stroke-dashoffset:0;stroke-opacity:1;paint-order:fill markers stroke"
       id="rect22998-9-9-8"
       width="13.643546"
       height="13.641554"
       x="96.529915"
       y="81.228539"
       transform="matrix(0,1,1,0,0,0)" />
    <rect
       style="fill:#000000;fill-opacity:1;stroke:none;stroke-width:0;stroke-linejoin:miter;stroke-miterlimit:4;stroke-dasharray:none;stroke-dashoffset:0;stroke-opacity:1;paint-order:fill markers stroke"
       id="rect22998-9-9-8-5"
       width="13.643546"
       height="13.641554"
       x="120.42828"
       y="57.072792"
       transform="matrix(0,1,1,0,0,0)" />
  </g>
</svg>
